<svg xmlns="http://www.w3.org/2000/svg" xmlns:xlink="http://www.w3.org/1999/xlink" version="1.1" width="689px" height="875px" style="shape-rendering:geometricPrecision; text-rendering:geometricPrecision; image-rendering:optimizeQuality; fill-rule:evenodd; clip-rule:evenodd">
    <g>
        <path style="opacity:0.996" fill="#ffffff" d="M 40.5,-0.5 C 153.833,-0.5 267.167,-0.5 380.5,-0.5C 481.717,100.217 582.883,201.217 684,302.5C 685.034,307.758 686.534,312.758 688.5,317.5C 688.5,491.5 688.5,665.5 688.5,839.5C 683.474,857.86 671.807,869.526 653.5,874.5C 445.833,874.5 238.167,874.5 30.5,874.5C 14.4649,869.798 4.13161,859.465 -0.5,843.5C -0.5,574.833 -0.5,306.167 -0.5,37.5C 6.11473,17.2184 19.7814,4.55174 40.5,-0.5 Z M 318.5,486.5 C 316.833,487.833 315.167,487.833 313.5,486.5C 280.544,452.863 244.211,448.697 204.5,474C 177.54,495.882 168.373,523.715 177,557.5C 193.491,596.614 222.991,614.114 265.5,610C 279.489,607.788 291.823,602.122 302.5,593C 307.015,588.318 311.681,583.818 316.5,579.5C 325.655,588.822 334.655,598.322 343.5,608C 338.459,614.708 332.459,620.375 325.5,625C 294.192,647.426 259.525,654.759 221.5,647C 182.283,634.451 154.45,609.285 138,571.5C 123.103,515.173 139.27,470.34 186.5,437C 214.742,419.916 245.076,414.916 277.5,422C 293.262,424.695 307.595,430.695 320.5,440C 328.5,446.667 336.5,453.333 344.5,460C 335.631,468.702 326.964,477.535 318.5,486.5 Z M 353.5,422.5 C 368.745,422.176 383.911,422.509 399,423.5C 417.863,473.756 436.53,524.09 455,574.5C 458.307,581.299 460.974,580.965 463,573.5C 481.122,523.129 499.622,472.963 518.5,423C 530.833,422.333 543.167,422.333 555.5,423C 557.715,423.17 559.715,423.837 561.5,425C 534.472,499.09 506.472,572.757 477.5,646C 464.562,646.178 451.729,645.345 439,643.5C 410.395,569.849 381.895,496.182 353.5,422.5 Z"/>
    </g>
</svg>