<svg xmlns="http://www.w3.org/2000/svg" width="1723" height="1431" viewBox="0 0 1723 1431" version="1.1"><path d="M 321.112 105.581 C 298.102 111.769, 282.953 134.606, 286.836 157.252 C 288.527 167.112, 292.347 174.490, 299.428 181.575 C 310.300 192.453, 325.641 197.667, 339.692 195.260 C 369.963 190.075, 387.313 157.676, 374.417 130.416 C 365.399 111.353, 341.336 100.142, 321.112 105.581 M 28.496 839 C 28.496 1149.475, 28.611 1276.487, 28.750 1121.250 C 28.889 966.012, 28.889 711.987, 28.750 556.750 C 28.611 401.512, 28.496 528.525, 28.496 839 M 118 840.500 L 118 1313 862 1313 L 1606 1313 1606 840.500 L 1606 368 862 368 L 118 368 118 840.500 M 735.293 587.011 C 722.190 588.924, 709.427 598.310, 703.430 610.444 C 692.624 632.310, 701.021 657.982, 722.444 668.570 C 759.519 686.893, 798.624 648.848, 781.133 611.471 C 773.055 594.207, 754.352 584.228, 735.293 587.011 M 899 632.092 C 895.975 632.601, 890.789 634.342, 887.475 635.961 C 877.056 641.050, 872.955 646.275, 854.492 677.984 L 837.668 706.877 832.897 699.124 C 826.999 689.540, 820.867 683.780, 812.180 679.665 C 805.880 676.680, 804.843 676.500, 793.948 676.500 C 782.606 676.500, 782.258 676.568, 774.777 680.266 C 769.503 682.872, 765.709 685.643, 762.454 689.266 C 756.091 696.347, 698.806 790.543, 696.764 797.283 C 693.156 809.191, 693.770 818.637, 698.858 829.510 C 703.973 840.442, 713.083 848.489, 725 852.602 C 730.293 854.429, 735.446 854.500, 862 854.500 C 988.554 854.500, 993.707 854.429, 999 852.602 C 1022.761 844.401, 1034.999 819.864, 1026.981 796.500 C 1024.715 789.895, 944.272 651.770, 939.391 646.102 C 930.018 635.219, 913.814 629.598, 899 632.092 M 577.825 995.921 C 561.748 1000.259, 549.627 1011.978, 543.812 1028.810 C 541.796 1034.643, 541.500 1037.422, 541.500 1050.500 C 541.500 1063.578, 541.796 1066.357, 543.812 1072.190 C 549.701 1089.234, 561.806 1100.815, 578.242 1105.130 C 596.560 1109.939, 614.678 1105.673, 627.892 1093.440 C 638.749 1083.387, 644.163 1069.101, 644.163 1050.500 C 644.163 1027.309, 635.753 1010.861, 618.657 1000.619 C 607.930 994.192, 591.318 992.281, 577.825 995.921 M 969.825 995.921 C 953.748 1000.259, 941.627 1011.978, 935.812 1028.810 C 933.796 1034.643, 933.500 1037.422, 933.500 1050.500 C 933.500 1063.578, 933.796 1066.357, 935.812 1072.190 C 941.701 1089.234, 953.806 1100.815, 970.242 1105.130 C 988.560 1109.939, 1006.678 1105.673, 1019.892 1093.440 C 1030.749 1083.388, 1036.206 1069.024, 1036.206 1050.500 C 1036.206 1044.781, 1035.512 1037.552, 1034.586 1033.613 C 1027.709 1004.387, 999.437 987.932, 969.825 995.921 M 1213 995.091 C 1199.760 997.658, 1185.862 1008.589, 1179.711 1021.273 C 1174.923 1031.148, 1173.568 1037.592, 1173.568 1050.500 C 1173.568 1056.550, 1174.162 1063.975, 1174.887 1067 C 1182.921 1100.493, 1217.645 1116.434, 1249.630 1101.313 C 1257.072 1097.795, 1266.562 1088.287, 1270.339 1080.565 C 1275.617 1069.777, 1276.466 1065.608, 1276.466 1050.500 C 1276.466 1040.259, 1276.025 1035.123, 1274.823 1031.370 C 1268.813 1012.615, 1256.157 1000.141, 1238.458 995.531 C 1232.137 993.885, 1220.282 993.680, 1213 995.091 M 448 1050.500 L 448 1106 463.500 1106 L 479 1106 479 1089.618 L 479 1073.236 491.750 1072.773 C 508.491 1072.165, 514.064 1070.139, 522.518 1061.588 C 530.870 1053.140, 533.392 1045.960, 532.839 1032.200 C 532.507 1023.939, 532.001 1021.522, 529.554 1016.521 C 524.301 1005.784, 514.297 998.307, 502.114 996.014 C 499.151 995.456, 485.763 995, 472.364 995 L 448 995 448 1050.500 M 655 1050.500 L 655 1106 671 1106 L 687 1106 687 1088 L 687 1070 690.420 1070 C 693.826 1070, 693.878 1070.071, 703.034 1087.250 C 708.091 1096.737, 712.548 1104.848, 712.939 1105.274 C 713.329 1105.700, 721.371 1105.925, 730.810 1105.774 L 747.971 1105.500 736.985 1085.331 C 730.943 1074.239, 726 1064.751, 726 1064.249 C 726 1063.746, 727.771 1061.912, 729.935 1060.173 C 735.851 1055.418, 740.046 1046.134, 740.699 1036.351 C 741.588 1023.035, 737.267 1011.590, 728.744 1004.687 C 718.386 996.297, 712.018 995.040, 679.750 995.017 L 655 995 655 1050.500 M 747 1009 L 747 1023 762.500 1023 L 778 1023 778 1064.500 L 778 1106 793.500 1106 L 809 1106 809 1064.500 L 809 1023 824.500 1023 L 840 1023 840 1009 L 840 995 793.500 995 L 747 995 747 1009 M 848 1050.500 L 848 1106 864 1106 L 880 1106 880 1085 L 880 1064 900.500 1064 L 921 1064 921 1050.500 L 921 1037 900.500 1037 L 880 1037 880 1030 L 880 1023 902.500 1023 L 925 1023 925 1009 L 925 995 886.500 995 L 848 995 848 1050.500 M 1047 1050.500 L 1047 1106 1084.500 1106 L 1122 1106 1122 1092 L 1122 1078 1100.500 1078 L 1079 1078 1079 1036.500 L 1079 995 1063 995 L 1047 995 1047 1050.500 M 1131 1050.500 L 1131 1106 1146.500 1106 L 1162 1106 1162 1050.500 L 1162 995 1146.500 995 L 1131 995 1131 1050.500 M 479 1034.500 L 479 1046 485.599 1046 C 496.448 1046, 501 1042.572, 501 1034.403 C 501 1026.209, 496.596 1023, 485.351 1023 L 479 1023 479 1034.500 M 584.008 1025.177 C 576.072 1029.281, 572.757 1036.743, 572.757 1050.500 C 572.757 1064.257, 576.072 1071.719, 584.008 1075.823 C 587.671 1077.716, 589.568 1078.056, 594.286 1077.664 C 601.814 1077.038, 606.327 1073.686, 609.843 1066.107 C 612.097 1061.248, 612.444 1059.166, 612.444 1050.500 C 612.444 1041.834, 612.097 1039.752, 609.843 1034.893 C 606.327 1027.314, 601.814 1023.962, 594.286 1023.336 C 589.568 1022.944, 587.671 1023.284, 584.008 1025.177 M 687 1033 L 687 1043 693.750 1042.998 C 705.470 1042.996, 710.758 1038.205, 708.373 1029.750 C 707.086 1025.191, 702.347 1023.004, 693.750 1023.002 L 687 1023 687 1033 M 976.008 1025.177 C 968.072 1029.281, 964.757 1036.743, 964.757 1050.500 C 964.757 1064.257, 968.072 1071.719, 976.008 1075.823 C 979.671 1077.716, 981.568 1078.056, 986.286 1077.664 C 993.814 1077.038, 998.327 1073.686, 1001.843 1066.107 C 1004.097 1061.248, 1004.444 1059.166, 1004.444 1050.500 C 1004.444 1041.834, 1004.097 1039.752, 1001.843 1034.893 C 998.327 1027.314, 993.814 1023.962, 986.286 1023.336 C 981.568 1022.944, 979.671 1023.284, 976.008 1025.177 M 1217.481 1024.394 C 1213.525 1026.117, 1208.555 1031.857, 1206.856 1036.664 C 1206.061 1038.913, 1205.500 1044.636, 1205.500 1050.500 C 1205.500 1061.890, 1206.779 1066.540, 1211.340 1071.735 C 1216.777 1077.926, 1224.799 1079.665, 1232.928 1076.412 C 1240.840 1073.247, 1245 1064.316, 1245 1050.500 C 1245 1040.991, 1243.341 1034.624, 1239.577 1029.690 C 1235.011 1023.704, 1224.724 1021.238, 1217.481 1024.394" stroke="none" fill="#f8db46" fill-rule="evenodd"/><path d="M 29 839 L 29 1403 862 1403 L 1695 1403 1695 839 L 1695 275 862 275 L 29 275 29 839 M 90 840.500 L 90 1341 862 1341 L 1634 1341 1634 840.500 L 1634 340 862 340 L 90 340 90 840.500 M 735.450 615.407 C 725.361 619.801, 722.978 633.213, 730.882 641.118 C 742.117 652.353, 760.528 642.290, 757.572 626.529 C 755.803 617.103, 744.548 611.444, 735.450 615.407 M 898.587 661.266 C 895.076 663.271, 891.791 668.455, 866.607 711.734 C 845.185 748.550, 838.273 759.677, 837.411 758.734 C 836.790 758.055, 829.668 746.606, 821.585 733.292 C 813.502 719.978, 805.550 707.958, 803.915 706.582 C 798.081 701.673, 789.076 701.994, 783.484 707.310 C 780.748 709.912, 729.023 793.320, 723.388 804.217 C 721.320 808.215, 721.990 816.162, 724.702 819.824 C 725.792 821.296, 728.172 823.513, 729.990 824.750 L 733.296 827 862 827 L 990.704 827 994.010 824.750 C 998.947 821.390, 1001.226 817.708, 1001.751 812.240 C 1002.085 808.759, 1001.709 806.337, 1000.459 803.916 C 995.637 794.579, 920.453 666.181, 918.621 664.155 C 913.565 658.565, 905.386 657.385, 898.587 661.266" stroke="none" fill="#ffffff" fill-rule="evenodd"/><path d="M 481 104.670 C 476.586 105.372, 466.623 109.213, 462.551 111.783 C 447.563 121.245, 438.768 140.762, 441.880 157.653 C 444.425 171.464, 453.847 183.784, 466.835 190.281 C 496.466 205.105, 530.665 188.314, 536.165 156.243 C 541.223 126.750, 512.284 99.696, 481 104.670 M 861.250 340.750 L 1633 341.001 1633 840.500 L 1633 1339.999 861.250 1340.250 L 89.500 1340.501 861.750 1340.751 L 1634 1341 1634 840.500 L 1634 340 861.750 340.249 L 89.500 340.499 861.250 340.750 M 798.750 827.750 C 833.537 827.896, 890.462 827.896, 925.250 827.750 C 960.037 827.604, 931.575 827.485, 862 827.485 C 792.425 827.485, 763.962 827.604, 798.750 827.750 M 445.250 1403.750 C 674.462 1403.889, 1049.537 1403.889, 1278.750 1403.750 C 1507.962 1403.611, 1320.425 1403.498, 862 1403.498 C 403.575 1403.498, 216.037 1403.611, 445.250 1403.750" stroke="none" fill="#41cc4f" fill-rule="evenodd"/><path d="M 321.112 105.581 C 298.102 111.769, 282.953 134.606, 286.836 157.252 C 288.527 167.112, 292.347 174.490, 299.428 181.575 C 310.300 192.453, 325.641 197.667, 339.692 195.260 C 369.963 190.075, 387.313 157.676, 374.417 130.416 C 365.399 111.353, 341.336 100.142, 321.112 105.581 M 28.496 839 C 28.496 1149.475, 28.611 1276.487, 28.750 1121.250 C 28.889 966.012, 28.889 711.987, 28.750 556.750 C 28.611 401.512, 28.496 528.525, 28.496 839 M 118 840.500 L 118 1313 862 1313 L 1606 1313 1606 840.500 L 1606 368 862 368 L 118 368 118 840.500 M 735.293 587.011 C 722.190 588.924, 709.427 598.310, 703.430 610.444 C 692.624 632.310, 701.021 657.982, 722.444 668.570 C 759.519 686.893, 798.624 648.848, 781.133 611.471 C 773.055 594.207, 754.352 584.228, 735.293 587.011 M 899 632.092 C 895.975 632.601, 890.789 634.342, 887.475 635.961 C 877.056 641.050, 872.955 646.275, 854.492 677.984 L 837.668 706.877 832.897 699.124 C 826.999 689.540, 820.867 683.780, 812.180 679.665 C 805.880 676.680, 804.843 676.500, 793.948 676.500 C 782.606 676.500, 782.258 676.568, 774.777 680.266 C 769.503 682.872, 765.709 685.643, 762.454 689.266 C 756.091 696.347, 698.806 790.543, 696.764 797.283 C 693.156 809.191, 693.770 818.637, 698.858 829.510 C 703.973 840.442, 713.083 848.489, 725 852.602 C 730.293 854.429, 735.446 854.500, 862 854.500 C 988.554 854.500, 993.707 854.429, 999 852.602 C 1022.761 844.401, 1034.999 819.864, 1026.981 796.500 C 1024.715 789.895, 944.272 651.770, 939.391 646.102 C 930.018 635.219, 913.814 629.598, 899 632.092 M 577.825 995.921 C 561.748 1000.259, 549.627 1011.978, 543.812 1028.810 C 541.796 1034.643, 541.500 1037.422, 541.500 1050.500 C 541.500 1063.578, 541.796 1066.357, 543.812 1072.190 C 549.701 1089.234, 561.806 1100.815, 578.242 1105.130 C 596.560 1109.939, 614.678 1105.673, 627.892 1093.440 C 638.749 1083.387, 644.163 1069.101, 644.163 1050.500 C 644.163 1027.309, 635.753 1010.861, 618.657 1000.619 C 607.930 994.192, 591.318 992.281, 577.825 995.921 M 969.825 995.921 C 953.748 1000.259, 941.627 1011.978, 935.812 1028.810 C 933.796 1034.643, 933.500 1037.422, 933.500 1050.500 C 933.500 1063.578, 933.796 1066.357, 935.812 1072.190 C 941.701 1089.234, 953.806 1100.815, 970.242 1105.130 C 988.560 1109.939, 1006.678 1105.673, 1019.892 1093.440 C 1030.749 1083.388, 1036.206 1069.024, 1036.206 1050.500 C 1036.206 1044.781, 1035.512 1037.552, 1034.586 1033.613 C 1027.709 1004.387, 999.437 987.932, 969.825 995.921 M 1213 995.091 C 1199.760 997.658, 1185.862 1008.589, 1179.711 1021.273 C 1174.923 1031.148, 1173.568 1037.592, 1173.568 1050.500 C 1173.568 1056.550, 1174.162 1063.975, 1174.887 1067 C 1182.921 1100.493, 1217.645 1116.434, 1249.630 1101.313 C 1257.072 1097.795, 1266.562 1088.287, 1270.339 1080.565 C 1275.617 1069.777, 1276.466 1065.608, 1276.466 1050.500 C 1276.466 1040.259, 1276.025 1035.123, 1274.823 1031.370 C 1268.813 1012.615, 1256.157 1000.141, 1238.458 995.531 C 1232.137 993.885, 1220.282 993.680, 1213 995.091 M 448 1050.500 L 448 1106 463.500 1106 L 479 1106 479 1089.618 L 479 1073.236 491.750 1072.773 C 508.491 1072.165, 514.064 1070.139, 522.518 1061.588 C 530.870 1053.140, 533.392 1045.960, 532.839 1032.200 C 532.507 1023.939, 532.001 1021.522, 529.554 1016.521 C 524.301 1005.784, 514.297 998.307, 502.114 996.014 C 499.151 995.456, 485.763 995, 472.364 995 L 448 995 448 1050.500 M 655 1050.500 L 655 1106 671 1106 L 687 1106 687 1088 L 687 1070 690.420 1070 C 693.826 1070, 693.878 1070.071, 703.034 1087.250 C 708.091 1096.737, 712.548 1104.848, 712.939 1105.274 C 713.329 1105.700, 721.371 1105.925, 730.810 1105.774 L 747.971 1105.500 736.985 1085.331 C 730.943 1074.239, 726 1064.751, 726 1064.249 C 726 1063.746, 727.771 1061.912, 729.935 1060.173 C 735.851 1055.418, 740.046 1046.134, 740.699 1036.351 C 741.588 1023.035, 737.267 1011.590, 728.744 1004.687 C 718.386 996.297, 712.018 995.040, 679.750 995.017 L 655 995 655 1050.500 M 747 1009 L 747 1023 762.500 1023 L 778 1023 778 1064.500 L 778 1106 793.500 1106 L 809 1106 809 1064.500 L 809 1023 824.500 1023 L 840 1023 840 1009 L 840 995 793.500 995 L 747 995 747 1009 M 848 1050.500 L 848 1106 864 1106 L 880 1106 880 1085 L 880 1064 900.500 1064 L 921 1064 921 1050.500 L 921 1037 900.500 1037 L 880 1037 880 1030 L 880 1023 902.500 1023 L 925 1023 925 1009 L 925 995 886.500 995 L 848 995 848 1050.500 M 1047 1050.500 L 1047 1106 1084.500 1106 L 1122 1106 1122 1092 L 1122 1078 1100.500 1078 L 1079 1078 1079 1036.500 L 1079 995 1063 995 L 1047 995 1047 1050.500 M 1131 1050.500 L 1131 1106 1146.500 1106 L 1162 1106 1162 1050.500 L 1162 995 1146.500 995 L 1131 995 1131 1050.500 M 479 1034.500 L 479 1046 485.599 1046 C 496.448 1046, 501 1042.572, 501 1034.403 C 501 1026.209, 496.596 1023, 485.351 1023 L 479 1023 479 1034.500 M 584.008 1025.177 C 576.072 1029.281, 572.757 1036.743, 572.757 1050.500 C 572.757 1064.257, 576.072 1071.719, 584.008 1075.823 C 587.671 1077.716, 589.568 1078.056, 594.286 1077.664 C 601.814 1077.038, 606.327 1073.686, 609.843 1066.107 C 612.097 1061.248, 612.444 1059.166, 612.444 1050.500 C 612.444 1041.834, 612.097 1039.752, 609.843 1034.893 C 606.327 1027.314, 601.814 1023.962, 594.286 1023.336 C 589.568 1022.944, 587.671 1023.284, 584.008 1025.177 M 687 1033 L 687 1043 693.750 1042.998 C 705.470 1042.996, 710.758 1038.205, 708.373 1029.750 C 707.086 1025.191, 702.347 1023.004, 693.750 1023.002 L 687 1023 687 1033 M 976.008 1025.177 C 968.072 1029.281, 964.757 1036.743, 964.757 1050.500 C 964.757 1064.257, 968.072 1071.719, 976.008 1075.823 C 979.671 1077.716, 981.568 1078.056, 986.286 1077.664 C 993.814 1077.038, 998.327 1073.686, 1001.843 1066.107 C 1004.097 1061.248, 1004.444 1059.166, 1004.444 1050.500 C 1004.444 1041.834, 1004.097 1039.752, 1001.843 1034.893 C 998.327 1027.314, 993.814 1023.962, 986.286 1023.336 C 981.568 1022.944, 979.671 1023.284, 976.008 1025.177 M 1217.481 1024.394 C 1213.525 1026.117, 1208.555 1031.857, 1206.856 1036.664 C 1206.061 1038.913, 1205.500 1044.636, 1205.500 1050.500 C 1205.500 1061.890, 1206.779 1066.540, 1211.340 1071.735 C 1216.777 1077.926, 1224.799 1079.665, 1232.928 1076.412 C 1240.840 1073.247, 1245 1064.316, 1245 1050.500 C 1245 1040.991, 1243.341 1034.624, 1239.577 1029.690 C 1235.011 1023.704, 1224.724 1021.238, 1217.481 1024.394" stroke="none" fill="#f8db46" fill-rule="evenodd"/><path d="M 165.949 105.826 C 149.127 110.218, 135.779 125.408, 132.767 143.587 C 129.656 162.361, 139.889 181.894, 157.358 190.527 C 175.558 199.522, 194.361 196.892, 209.045 183.298 C 216.269 176.610, 221.532 166.681, 223.205 156.582 C 226.347 137.619, 216.161 118.091, 198.645 109.501 C 187.082 103.831, 177.650 102.771, 165.949 105.826 M 90.496 840.500 C 90.496 1115.500, 90.610 1227.851, 90.750 1090.168 C 90.890 952.486, 90.890 727.486, 90.750 590.168 C 90.610 452.851, 90.496 565.500, 90.496 840.500 M 117.463 368.250 C 117.202 368.938, 117.104 581.900, 117.244 841.500 L 117.500 1313.500 862 1313.501 L 1606.500 1313.502 862.250 1313.250 L 118 1312.999 118 840.500 L 118 368.001 862.250 367.750 L 1606.500 367.499 862.219 367.249 C 267.530 367.050, 117.842 367.251, 117.463 368.250 M 798.250 854.750 C 833.313 854.896, 890.688 854.896, 925.750 854.750 C 960.813 854.604, 932.125 854.485, 862 854.485 C 791.875 854.485, 763.188 854.604, 798.250 854.750 M 655.467 1050.500 C 655.467 1081.300, 655.594 1094.044, 655.749 1078.821 C 655.904 1063.598, 655.905 1038.398, 655.749 1022.821 C 655.594 1007.244, 655.467 1019.700, 655.467 1050.500 M 747.397 1009 C 747.397 1016.975, 747.553 1020.237, 747.743 1016.250 C 747.932 1012.263, 747.932 1005.737, 747.743 1001.750 C 747.553 997.763, 747.397 1001.025, 747.397 1009 M 839.397 1009 C 839.397 1016.975, 839.553 1020.237, 839.743 1016.250 C 839.932 1012.263, 839.932 1005.737, 839.743 1001.750 C 839.553 997.763, 839.397 1001.025, 839.397 1009 M 848.467 1050.500 C 848.467 1081.300, 848.594 1094.044, 848.749 1078.821 C 848.904 1063.598, 848.905 1038.398, 848.749 1022.821 C 848.594 1007.244, 848.467 1019.700, 848.467 1050.500 M 1047.467 1050.500 C 1047.467 1081.300, 1047.594 1094.044, 1047.749 1078.821 C 1047.904 1063.598, 1047.905 1038.398, 1047.749 1022.821 C 1047.594 1007.244, 1047.467 1019.700, 1047.467 1050.500 M 920.395 1050.500 C 920.396 1058.200, 920.553 1061.218, 920.743 1057.206 C 920.934 1053.195, 920.932 1046.895, 920.741 1043.206 C 920.549 1039.518, 920.393 1042.800, 920.395 1050.500 M 1121.397 1092 C 1121.397 1099.975, 1121.553 1103.237, 1121.743 1099.250 C 1121.932 1095.263, 1121.932 1088.737, 1121.743 1084.750 C 1121.553 1080.763, 1121.397 1084.025, 1121.397 1092" stroke="none" fill="#f95959" fill-rule="evenodd"/><path d="M 109.097 1.612 C 84.061 5.807, 59.984 18.177, 41.002 36.597 C 20.210 56.772, 6.961 81.798, 2.496 109.328 C 1.190 117.380, 1.008 198.653, 1.004 774.750 L 1 1431 862 1431 L 1723 1431 1722.996 774.750 C 1722.992 48.091, 1723.582 110.468, 1716.510 89.329 C 1710.046 70.002, 1700.774 54.812, 1686.403 40.002 C 1666.228 19.210, 1641.202 5.961, 1613.672 1.496 C 1600.190 -0.691, 122.157 -0.577, 109.097 1.612 M 165.949 105.826 C 149.127 110.218, 135.779 125.408, 132.767 143.587 C 129.656 162.361, 139.889 181.894, 157.358 190.527 C 175.558 199.522, 194.361 196.892, 209.045 183.298 C 216.269 176.610, 221.532 166.681, 223.205 156.582 C 226.347 137.619, 216.161 118.091, 198.645 109.501 C 187.082 103.831, 177.650 102.771, 165.949 105.826 M 321.335 105.359 C 304.401 109.674, 290.850 123.298, 286.988 139.890 C 285.328 147.023, 286.230 158.971, 288.981 166.264 C 291.773 173.670, 298.092 181.946, 304.760 186.931 C 325.515 202.450, 356.723 197.142, 371.073 175.652 C 384.716 155.222, 380.149 128.265, 360.514 113.327 C 357.497 111.032, 352.435 108.169, 349.264 106.966 C 342.116 104.251, 328.709 103.480, 321.335 105.359 M 481 104.670 C 476.586 105.372, 466.623 109.213, 462.551 111.783 C 447.563 121.245, 438.768 140.762, 441.880 157.653 C 444.425 171.464, 453.847 183.784, 466.835 190.281 C 496.466 205.105, 530.665 188.314, 536.165 156.243 C 541.223 126.750, 512.284 99.696, 481 104.670 M 28.249 839.250 L 28.500 1403.500 861.750 1403.751 L 1695 1404.001 1695 839.501 L 1695 275 861.499 275 L 27.998 275 28.249 839.250 M 91 840.500 L 91 1340 862 1340 L 1633 1340 1633 840.500 L 1633 341 862 341 L 91 341 91 840.500 M 117.463 368.250 C 117.202 368.938, 117.104 581.900, 117.244 841.500 L 117.500 1313.500 861.750 1313.751 L 1606 1314.001 1606 840.501 L 1606 367 861.969 367 C 267.663 367, 117.842 367.252, 117.463 368.250 M 728.416 588.956 C 697.882 599.824, 688.907 637.840, 711.533 660.467 C 728.370 677.303, 755.630 677.303, 772.467 660.467 C 792.047 640.887, 788.313 608.217, 764.800 593.374 C 754.636 586.957, 739.271 585.092, 728.416 588.956 M 736.500 614.469 C 725.089 618.597, 721.841 633.041, 730.400 641.600 C 744.862 656.062, 767.561 635.696, 754.908 619.611 C 750.716 614.281, 742.988 612.123, 736.500 614.469 M 893.487 633.799 C 885.858 636.437, 879.689 640.434, 874.866 645.864 C 872.465 648.567, 865.344 659.716, 859.042 670.639 C 852.740 681.563, 845.379 694.250, 842.685 698.834 L 837.785 707.167 831.791 698.007 C 824.590 687.003, 817.715 681.445, 807.067 678.021 C 790.038 672.546, 769.781 678.865, 759.696 692.799 C 754.213 700.374, 700.137 789.524, 697.860 794.741 C 696.525 797.800, 695.596 802.584, 695.259 808.136 C 694.102 827.224, 703.674 842.887, 721.587 851.216 L 726.500 853.500 862 853.500 L 997.500 853.500 1002.413 851.216 C 1023.889 841.230, 1034.121 818.379, 1026.689 797 C 1024.353 790.280, 945.283 653.593, 940.081 647.282 C 935.442 641.654, 927.255 636.159, 920.315 634.016 C 912.105 631.480, 900.465 631.386, 893.487 633.799 M 901.655 659.426 C 899.541 660.198, 896.771 661.806, 895.500 663 C 894.229 664.194, 880.908 686.283, 865.896 712.087 C 847.898 743.027, 838.266 758.666, 837.614 758.014 C 837.070 757.470, 829.836 745.892, 821.538 732.286 C 804.467 704.293, 803.252 703, 794 703 C 789.731 703, 787.451 703.569, 784.939 705.262 C 782.421 706.959, 774.264 719.509, 752.279 755.512 C 736.162 781.905, 722.514 805.188, 721.949 807.250 C 719.768 815.219, 725.310 824.604, 733.547 826.891 C 739.117 828.438, 984.883 828.438, 990.453 826.891 C 999.070 824.499, 1004.499 814.778, 1001.776 806.616 C 1000.598 803.087, 930.775 682.074, 921.390 667.298 C 916.483 659.571, 909.208 656.669, 901.655 659.426 M 580.389 995.488 C 562.208 999.443, 549.472 1011.995, 542.834 1032.500 C 541.043 1038.034, 541.082 1062.001, 542.894 1068.500 C 548.193 1087.515, 562.697 1101.709, 580.730 1105.531 C 609.964 1111.726, 636.465 1094.896, 642.527 1066.287 C 645.665 1051.481, 643.794 1033.421, 637.878 1021.405 C 627.811 1000.955, 604.197 990.309, 580.389 995.488 M 972.263 995.514 C 958.595 998.484, 946.393 1007.911, 939.881 1020.535 C 934.540 1030.887, 933.500 1035.771, 933.500 1050.500 C 933.500 1065.227, 934.540 1070.114, 939.877 1080.459 C 950.267 1100.598, 973.788 1110.910, 996.907 1105.460 C 1015.743 1101.020, 1029.824 1086.576, 1034.451 1066.947 C 1036.401 1058.675, 1036.401 1042.325, 1034.451 1034.053 C 1027.712 1005.461, 1001.434 989.176, 972.263 995.514 M 1212.897 995.459 C 1193.818 1000.320, 1179.867 1014.526, 1175.438 1033.603 C 1173.373 1042.496, 1173.373 1058.504, 1175.438 1067.397 C 1181.192 1092.180, 1203.140 1108.418, 1228.500 1106.656 C 1242.620 1105.675, 1252.888 1100.996, 1262.081 1091.354 C 1281.572 1070.909, 1281.891 1030.568, 1262.721 1010.299 C 1252.925 999.941, 1242.248 995.137, 1227.500 994.451 C 1221.665 994.179, 1216.530 994.534, 1212.897 995.459 M 448 1050.500 L 448 1106 463.500 1106 L 479 1106 479 1089.621 L 479 1073.241 491.250 1072.771 C 505.481 1072.225, 512.019 1070.214, 519.949 1063.946 C 529.209 1056.626, 533.610 1045.427, 532.699 1031.500 C 532.025 1021.190, 529.669 1015.149, 523.714 1008.469 C 513.742 997.280, 504.518 995.021, 468.750 995.008 L 448 995 448 1050.500 M 656 1050.500 L 656 1106 671.500 1106 L 687 1106 687 1087.940 L 687 1069.879 690.750 1070.190 L 694.500 1070.500 703.941 1088.250 L 713.382 1106 730.733 1106 L 748.084 1106 745.651 1101.750 C 744.312 1099.412, 739.114 1089.976, 734.098 1080.780 L 724.980 1064.060 729.641 1059.780 C 738.390 1051.745, 742.335 1038.878, 739.999 1025.995 C 736.842 1008.587, 725.016 998.179, 705.893 995.980 C 701.277 995.449, 688.163 995.012, 676.750 995.008 L 656 995 656 1050.500 M 748 1009 L 748 1023 763 1023 L 778 1023 778 1064.500 L 778 1106 793.500 1106 L 809 1106 809 1064.500 L 809 1023 824 1023 L 839 1023 839 1009 L 839 995 793.500 995 L 748 995 748 1009 M 849 1050.500 L 849 1106 864.500 1106 L 880 1106 880 1085 L 880 1064 900 1064 L 920 1064 920 1050.500 L 920 1037 900 1037 L 880 1037 880 1030 L 880 1023 902.500 1023 L 925 1023 925 1009 L 925 995 887 995 L 849 995 849 1050.500 M 1048 1050.500 L 1048 1106 1084.500 1106 L 1121 1106 1121 1092 L 1121 1078 1100 1078 L 1079 1078 1079 1036.500 L 1079 995 1063.500 995 L 1048 995 1048 1050.500 M 1131 1050.500 L 1131 1106 1146.500 1106 L 1162 1106 1162 1050.500 L 1162 995 1146.500 995 L 1131 995 1131 1050.500 M 479 1034.500 L 479 1046 486.050 1046 C 493.703 1046, 498.204 1044.357, 500.062 1040.884 C 501.783 1037.668, 501.537 1030.469, 499.605 1027.520 C 497.316 1024.027, 494.211 1023, 485.935 1023 L 479 1023 479 1034.500 M 584.481 1024.394 C 580.256 1026.235, 575.315 1032.190, 573.826 1037.237 C 573.135 1039.582, 572.569 1045.550, 572.569 1050.500 C 572.569 1061.375, 574.043 1066.840, 578.276 1071.662 C 582.259 1076.198, 586.468 1078, 593.082 1078 C 605.413 1078, 613 1067.524, 613 1050.500 C 613 1038.404, 608.887 1028.991, 601.881 1025.053 C 597.628 1022.663, 589.187 1022.343, 584.481 1024.394 M 687 1033 L 687 1043.205 695.587 1042.853 C 703.548 1042.526, 704.349 1042.296, 706.587 1039.694 C 708.243 1037.769, 709 1035.669, 709 1033 C 709 1030.331, 708.243 1028.231, 706.587 1026.306 C 704.349 1023.704, 703.548 1023.474, 695.587 1023.147 L 687 1022.795 687 1033 M 977 1024.118 C 968.870 1027.343, 964.510 1036.553, 964.510 1050.500 C 964.510 1061.311, 966.628 1068.285, 971.272 1072.764 C 975.358 1076.705, 978.810 1078, 985.227 1078 C 992.810 1078, 998.093 1074.548, 1001.676 1067.251 C 1004.255 1061.999, 1004.500 1060.546, 1004.500 1050.500 C 1004.500 1040.454, 1004.255 1039.001, 1001.676 1033.749 C 998.010 1026.283, 992.813 1022.971, 984.912 1023.063 C 981.935 1023.098, 978.375 1023.573, 977 1024.118 M 1215.830 1025.027 C 1208.621 1028.835, 1205 1037.352, 1205 1050.500 C 1205 1068.541, 1211.974 1078.025, 1225.210 1077.984 C 1234.422 1077.955, 1241.393 1072.302, 1244.183 1062.599 C 1244.831 1060.345, 1245.361 1054.900, 1245.361 1050.500 C 1245.361 1037.315, 1242.008 1029.551, 1234.470 1025.282 C 1229.358 1022.386, 1221.044 1022.273, 1215.830 1025.027" stroke="none" fill="#05060f" fill-rule="evenodd"/></svg>