<?xml version="1.0" encoding="utf-8"?>
<svg viewBox="0 0 2048 2048" xmlns="http://www.w3.org/2000/svg" width="25" height="25">
  <path fill="#ffffff" d="M 2048 169.646 L 2048 1961.646 L 0 1961.646 L 0 169.646 L 384 169.646 L 384 41.646 L 512 41.646 L 512 169.646 L 1536 169.646 L 1536 41.646 L 1664 41.646 L 1664 169.646 L 2048 169.646 Z M 128 297.646 L 128 553.646 L 1920 553.646 L 1920 297.646 L 1664 297.646 L 1664 425.646 L 1536 425.646 L 1536 297.646 L 512 297.646 L 512 425.646 L 384 425.646 L 384 297.646 L 128 297.646 Z M 1920 1833.646 L 1920 681.646 L 128 681.646 L 128 1833.646 L 1920 1833.646 Z" transform="matrix(0.9999999999999999, 0, 0, 0.9999999999999999, 0, 0)"/>
  <path fill="#ffffff" d="M 771.249 826.724 L 1200.249 1255.724 L 771.249 1684.724 L 681.249 1594.724 L 1020.249 1255.724 L 681.249 916.724 L 771.249 826.724 Z" style="transform-origin: 940.749px 1255.72px;" transform="matrix(-1, 0, 0, -1, 0.000056073011, -0.000169293642)"/>
</svg>